<svg xmlns="http://www.w3.org/2000/svg" xmlns:xlink="http://www.w3.org/1999/xlink" width="2242.232" height="2820.435" viewBox="0 0 2242.232 2820.435">
    <defs>
        <linearGradient id="linear-gradient" x1=".737" x2=".268" y1="-.473" y2=".834" gradientUnits="objectBoundingBox">
            <stop offset="0" stop-color="#dbe0f3"/>
            <stop offset=".98" stop-color="#f5f7fb"/>
            <stop offset="1" stop-color="#f6f7fb"/>
        </linearGradient>
        <linearGradient id="linear-gradient-2" x1=".134" x2=".5" y1=".383" y2="1" gradientUnits="objectBoundingBox">
            <stop offset="0" stop-color="#d9def5"/>
            <stop offset="1" stop-color="#d3e0f6"/>
            <stop offset="1" stop-color="#f6f7fb"/>
        </linearGradient>
        <linearGradient id="linear-gradient-3" x1=".5" x2=".5" y1="0" y2="1" xlink:href="#linear-gradient"/>
        <linearGradient id="linear-gradient-4" x1=".524" x2=".5" y1=".311" y2="1" gradientUnits="objectBoundingBox">
            <stop offset="0" stop-color="#dbe0f3"/>
            <stop offset="1" stop-color="#f5f7fb" stop-opacity="0"/>
            <stop offset="1" stop-color="#f6f7fb"/>
        </linearGradient>
        <linearGradient id="linear-gradient-5" x1=".17" x2=".5" y1=".089" y2="1" gradientUnits="objectBoundingBox">
            <stop offset="0" stop-color="#dbe0f3"/>
            <stop offset="1" stop-color="#f5f7fb"/>
            <stop offset="1" stop-color="#f6f7fb"/>
        </linearGradient>
        <linearGradient id="linear-gradient-7" x1=".134" x2=".5" y1=".383" y2="1" gradientUnits="objectBoundingBox">
            <stop offset="0" stop-color="#dbe0f3"/>
            <stop offset="1" stop-color="#e7eaef"/>
            <stop offset="1" stop-color="#f6f7fb"/>
        </linearGradient>
        <linearGradient id="linear-gradient-11" x1=".263" x2=".732" y1="-.473" y2=".834" xlink:href="#linear-gradient"/>
        <linearGradient id="linear-gradient-12" x1=".866" y1=".383" xlink:href="#linear-gradient-7"/>
        <style>
            .cls-2{fill:url(#linear-gradient)}.cls-4{fill:url(#linear-gradient-3)}.cls-5{opacity:.84;fill:url(#linear-gradient-4)}.cls-6{fill:url(#linear-gradient-5)}.cls-9{fill:url(#linear-gradient-11)}.cls-10{fill:url(#linear-gradient-12)}
        </style>
    </defs>
    <g id="bg" transform="translate(76.099 83.435)">
        <path id="bg-2" fill="#f6f7fb" d="M0 0h1920v2667H0z" data-name="bg" transform="translate(0 70)"/>
        <g id="Object" transform="rotate(53 -1384.22 1195.26)">
            <g id="그룹_35" data-name="그룹 35" transform="translate(191.82 465.616)">
                <path id="패스_578" d="M-844.692 1758.616l-86.778 43.1 91.437 28.538 89.107-43.1z" class="cls-2" data-name="패스 578" transform="translate(931.47 -1758.616)"/>
                <path id="패스_579" fill="url(#linear-gradient-2)" d="M-820.966 1780.491v80.252l88.4-50.42 1.448-73z" data-name="패스 579" transform="translate(911.239 -1708.855)"/>
                <path id="패스_580" d="M-1017.016 1769.821v77.141l91.187 30.591v-79.744z" class="cls-4" data-name="패스 580" transform="translate(1017.229 -1726.583)"/>
            </g>
            <path id="패스_581" d="M-820.47 1830.073v198.967l93.444 32.46s88.363-57.706 88.363-55.9v-191.156l-88.363 41.477z" class="cls-5" data-name="패스 581" transform="translate(1009.102 -1318.786)"/>
        </g>
        <rect id="Object-2" width="388" height="388" class="cls-6" data-name="Object" rx="61" transform="rotate(-115.98 1705.275 706.101)"/>
        <g id="Object-3" data-name="Object" transform="translate(65.731 -53.049)">
            <g id="그룹_33" data-name="그룹 33" transform="rotate(-53.98 1115.221 -1366.02)">
                <path id="패스_578-2" d="M106.122 0L0 52.7l111.819 34.9L220.79 34.9z" class="cls-2" data-name="패스 578"/>
                <path id="패스_579-2" fill="url(#linear-gradient-7)" d="M0 52.789v98.141l108.1-61.658L109.875 0z" data-name="패스 579" transform="translate(110.395 34.814)"/>
                <path id="패스_580-2" d="M0 0v94.337l111.514 37.41V34.226z" class="cls-4" data-name="패스 580" transform="translate(.26 52.877)"/>
            </g>
            <path id="패스_582" fill="url(#linear-gradient-4)" d="M0 18.769v238.945L112.219 296.7s106.118-69.3 106.118-67.136V0L112.219 49.81z" data-name="패스 582" opacity="0.5" transform="rotate(-53.98 1151.294 -1385.294)"/>
        </g>
        <g id="그룹_9201" data-name="그룹 9201" transform="rotate(47 3.212 865.776)">
            <path id="패스_15067" d="M1.057 0L0 124.9l53.868 23.3s76.4-9.856 76.4-8.366-1.991-135.123-1.991-135.123L56.159 22.9z" class="cls-5" data-name="패스 15067" transform="rotate(-16 2832.676 138.744)"/>
            <g id="Object-4" data-name="Object" transform="rotate(-16 2759.819 148.995)">
                <path id="패스_578-3" d="M68.255 0l59.66 23.123-70.356 19.8L0 20.042z" class="cls-9" data-name="패스 578"/>
                <path id="패스_579-3" d="M57.381 22.811l-.194 73.329L0 68.756.087 0z" class="cls-10" data-name="패스 579" transform="translate(.291 20.231)"/>
                <path id="패스_580-3" d="M70.358 0l-.05 70.645L0 93.329V19.7z" class="cls-4" data-name="패스 580" transform="translate(57.556 23.162)"/>
            </g>
        </g>
        <g id="그룹_9202" data-name="그룹 9202" transform="rotate(-20 1743.703 1430.925)">
            <path id="패스_583" d="M1.143 0L0 135.082l58.258 25.194s82.628-10.659 82.628-9.048S138.73 5.095 138.73 5.095L60.735 24.768z" class="cls-5" data-name="패스 583" transform="rotate(-16 5783.006 -5223.988)"/>
            <g id="Object-5" data-name="Object" transform="rotate(-16 5704.209 -5212.902)">
                <path id="패스_578-4" d="M73.817 0l64.521 25.007-76.09 21.418L0 21.675z" class="cls-9" data-name="패스 578"/>
                <path id="패스_579-4" d="M62.057 24.67l-.21 79.3L0 74.359.094 0z" class="cls-10" data-name="패스 579" transform="translate(.315 21.879)"/>
                <path id="패스_580-4" d="M76.091 0l-.054 76.4L0 100.935V21.309z" class="cls-4" data-name="패스 580" transform="translate(62.246 25.049)"/>
            </g>
        </g>
        <rect id="Object-6" width="224" height="224" class="cls-6" data-name="Object" rx="28" transform="rotate(126.02 106.29 84.52)"/>
    </g>
</svg>
