<svg xmlns="http://www.w3.org/2000/svg" width="41.5" height="41.5" viewBox="0 0 41.5 41.5">
    <defs>
        <style>
            .cls-2{opacity:.3}.cls-3{fill:#d10909}.cls-5{fill:#222}
        </style>
    </defs>
    <g id="Customer_Service_icon" data-name="Customer Service_icon" transform="translate(-2397.113 -5428.573)">
        <g id="그룹_9237" data-name="그룹 9237">
            <g id="그룹_9229" class="cls-2" data-name="그룹 9229">
                <path id="사각형_3755" d="M0 0H3.001V13.604H0z" class="cls-3" data-name="사각형 3755" transform="rotate(180 1215.945 2729.32)"/>
            </g>
            <g id="그룹_9230" class="cls-2" data-name="그룹 9230">
                <path id="사각형_3756" d="M0 0H3.001V13.604H0z" class="cls-3" data-name="사각형 3756" transform="rotate(180 1203.274 2729.32)"/>
            </g>
            <g id="그룹_9236" data-name="그룹 9236">
                <g id="그룹_9231" data-name="그룹 9231">
                    <rect id="사각형_3757" width="8.745" height="5.095" fill="#fff" data-name="사각형 3757" rx="2.547" transform="translate(2416.359 5460.002)"/>
                    <path id="패스_15083" d="M2422.557 5465.847h-3.651a3.3 3.3 0 1 1 0-6.594h3.651a3.3 3.3 0 0 1 0 6.594zm-3.651-5.094a1.8 1.8 0 1 0 0 3.594h3.651a1.8 1.8 0 0 0 0-3.594z" class="cls-5" data-name="패스 15083"/>
                </g>
                <g id="그룹_9232" data-name="그룹 9232">
                    <path id="패스_15084" d="M2425.1 5463.3v-1.5c1.888 0 3.255-.437 3.955-1.264a2.521 2.521 0 0 0 .548-1.913l1.476-.27a4.057 4.057 0 0 1-.857 3.125c-1.001 1.208-2.722 1.822-5.122 1.822z" class="cls-5" data-name="패스 15084"/>
                </g>
                <g id="그룹_9233" data-name="그룹 9233">
                    <path id="패스_15085" d="M2406.114 5445.22l-1.446-.353a1.825 1.825 0 0 1 .058-.212l.1-.492c1.255-6.584 6.737-11.364 13.035-11.364 6.38 0 11.877 4.854 13.07 11.541l-1.477.264c-1.064-5.971-5.939-10.305-11.592-10.305-5.579 0-10.442 4.267-11.563 10.145a3.04 3.04 0 0 1-.185.776z" class="cls-5" data-name="패스 15085"/>
                </g>
                <g id="그룹_9234" data-name="그룹 9234">
                    <path id="패스_15086" d="M2407.556 5459.391h-.75c-3.691 0-6.693-3.476-6.693-7.749s3-7.75 6.693-7.75h.75zm-1.5-13.933c-2.509.438-4.443 3.045-4.443 6.184s1.934 5.745 4.443 6.184z" class="cls-5" data-name="패스 15086"/>
                </g>
                <g id="그룹_9235" data-name="그룹 9235">
                    <path id="패스_15087" d="M2428.92 5459.471h-.75v-15.5h.75c3.69 0 6.693 3.477 6.693 7.749s-3.003 7.751-6.693 7.751zm.75-13.932v12.367c2.51-.439 4.443-3.044 4.443-6.184s-1.933-5.745-4.443-6.183z" class="cls-5" data-name="패스 15087"/>
                </g>
            </g>
        </g>
    </g>
</svg>
