<svg xmlns="http://www.w3.org/2000/svg" width="25.5" height="25.5" viewBox="0 0 25.5 25.5">
    <defs>
        <style>
            .cls-2{fill:#222}
        </style>
    </defs>
    <g id="hits_icon" transform="translate(-2857.9 -5472.618)">
        <g id="그룹_9255" transform="translate(2860.15 5474.868)">
            <g id="그룹_9252">
                <g id="그룹_9251">
                    <g id="그룹_9250">
                        <path id="패스_15094" d="M2871.65 5496.868a10.5 10.5 0 1 1 10.5-10.5 10.513 10.513 0 0 1-10.5 10.5zm0-20.113a9.613 9.613 0 1 0 9.613 9.613 9.624 9.624 0 0 0-9.613-9.613z" class="cls-2" transform="translate(-2861.15 -5475.868)"/>
                    </g>
                </g>
            </g>
            <g id="그룹_9254" transform="translate(7.489 6.234)">
                <path id="패스_15095" fill="#d10909" d="M2874.587 5486.762l-.082 7.741h1.635l2.147-5.638z" opacity="0.3" transform="translate(-2873.981 -5486.46)"/>
                <g id="그룹_9253">
                    <path id="패스_15096" d="M2874.809 5495.151a1.182 1.182 0 0 1-1.177-1.181v-6.532a1.178 1.178 0 0 1 1.79-1.006l5.68 3.457a1.177 1.177 0 0 1-.051 2.041l-5.681 3.076a1.175 1.175 0 0 1-.561.145zm0-8a.3.3 0 0 0-.144.038.284.284 0 0 0-.148.253v6.532a.288.288 0 0 0 .142.25.281.281 0 0 0 .286.006l5.68-3.075a.291.291 0 0 0 .013-.5l-5.68-3.457a.286.286 0 0 0-.146-.051z" class="cls-2" transform="translate(-2873.632 -5486.258)"/>
                </g>
            </g>
        </g>
    </g>
</svg>
