<?xml version="1.0"?>
<svg xmlns="http://www.w3.org/2000/svg" xmlns:xlink="http://www.w3.org/1999/xlink" xmlns:svgjs="http://svgjs.com/svgjs" version="1.1" width="512" height="512" x="0" y="0" viewBox="0 0 512 512" style="enable-background:new 0 0 512 512" xml:space="preserve" class=""><g><g xmlns="http://www.w3.org/2000/svg"><path d="m108.551 82.516h151.009c4.142 0 7.5-3.357 7.5-7.5s-3.358-7.5-7.5-7.5h-151.009c-4.142 0-7.5 3.357-7.5 7.5s3.358 7.5 7.5 7.5z" fill="#dbe0f5" data-original="#000000" style="" class=""/><path d="m108.551 131.853h151.009c4.142 0 7.5-3.357 7.5-7.5s-3.358-7.5-7.5-7.5h-151.009c-4.142 0-7.5 3.357-7.5 7.5s3.358 7.5 7.5 7.5z" fill="#dbe0f5" data-original="#000000" style="" class=""/><path d="m456.79 118.946-116.75-116.75c-1.407-1.406-3.314-2.196-5.304-2.196h-247.75c-18.733 0-33.973 15.24-33.973 33.974v444.053c0 18.733 15.24 33.974 33.973 33.974h338.027c18.733 0 33.973-15.24 33.973-33.974v-353.777c.001-1.989-.789-3.896-2.196-5.304zm-114.554-93.34 91.144 91.144h-78.641c-6.894 0-12.503-5.608-12.503-12.503zm101.751 452.42c0 10.462-8.511 18.974-18.973 18.974h-338.028c-10.462 0-18.973-8.512-18.973-18.974v-444.052c0-10.462 8.511-18.974 18.973-18.974h240.25v89.247c0 15.165 12.338 27.503 27.503 27.503h89.248z" fill="#dbe0f5" data-original="#000000" style="" class=""/><path d="m403.449 325.375c-4.142 0-7.5 3.357-7.5 7.5v51.832l-55.749-67.012c-4.408-5.299-10.888-8.338-17.78-8.338-6.892 0-13.373 3.039-17.78 8.337l-26.295 31.606-49.214-59.157c-4.408-5.298-10.888-8.336-17.78-8.336s-13.373 3.038-17.78 8.336l-77.52 93.182v-50.557c0-4.143-3.358-7.5-7.5-7.5s-7.5 3.357-7.5 7.5v71.992c0 15.239 12.398 27.637 27.637 27.637h254.624c15.239 0 27.637-12.397 27.637-27.637v-71.885c0-4.143-3.358-7.5-7.5-7.5zm-287.262 81.24 88.915-106.879c1.549-1.862 3.827-2.93 6.249-2.93s4.7 1.067 6.249 2.93l97.884 117.66h-186.796c-6.338 0-11.6-4.689-12.501-10.781zm267.125 10.781h-48.316l-46.895-56.369 28.069-33.739c1.549-1.862 3.827-2.931 6.249-2.931s4.699 1.068 6.249 2.931l66.927 80.448c-1.342 5.536-6.34 9.66-12.283 9.66z" fill="#dbe0f5" data-original="#000000" style="" class=""/><path d="m101.051 225.88v71.87c0 4.143 3.358 7.5 7.5 7.5s7.5-3.357 7.5-7.5v-71.87c0-6.969 5.669-12.638 12.637-12.638h254.624c6.968 0 12.637 5.669 12.637 12.638v72.12c0 4.143 3.358 7.5 7.5 7.5s7.5-3.357 7.5-7.5v-72.12c0-15.239-12.398-27.638-27.637-27.638h-254.624c-15.239 0-27.637 12.399-27.637 27.638z" fill="#dbe0f5" data-original="#000000" style="" class=""/></g></g></svg>
