<svg xmlns="http://www.w3.org/2000/svg" width="41.5" height="41.5" viewBox="0 0 41.5 41.5">
    <defs>
        <style>
            .cls-2{opacity:.3}.cls-3{fill:#d10909}.cls-4{fill:#222}
        </style>
    </defs>
    <g id="Info_icon" transform="translate(-2322.243 -5427.55)">
        <g id="그룹_9228" data-name="그룹 9228">
            <g id="그룹_9219" data-name="그룹 9219">
                <g id="그룹_9217" class="cls-2" data-name="그룹 9217">
                    <path id="패스_15078" d="M2346.056 5450.006c-4.985 0-9.026-2.628-9.026-5.871s4.041-5.871 9.026-5.871l.28.868c-2.586 1.032-4.311 2.885-4.311 5s1.726 3.971 4.311 5l-.28.868" class="cls-3" data-name="패스 15078"/>
                </g>
                <g id="그룹_9218" class="cls-2" data-name="그룹 9218">
                    <path id="패스_15079" d="M2347.816 5449.987h-2.35c-9.474 0-12.122 3.531-12.122 7.885v4.035l5 2.047v-6.082s.179-7.885 9.472-7.885z" class="cls-3" data-name="패스 15079"/>
                </g>
            </g>
            <g id="그룹_9220" data-name="그룹 9220">
                <path id="패스_15080" d="M2342.993 5466.049a17.75 17.75 0 1 1 17.75-17.75 17.77 17.77 0 0 1-17.75 17.75zm0-34a16.25 16.25 0 1 0 16.25 16.25 16.269 16.269 0 0 0-16.25-16.25z" class="cls-4" data-name="패스 15080"/>
            </g>
            <g id="그룹_9227" data-name="그룹 9227">
                <g id="그룹_9226" data-name="그룹 9226">
                    <g id="그룹_9224" data-name="그룹 9224">
                        <g id="그룹_9223" data-name="그룹 9223">
                            <g id="그룹_9222" data-name="그룹 9222">
                                <g id="그룹_9221" data-name="그룹 9221">
                                    <path id="패스_15081" d="M2343.051 5450.738a6.621 6.621 0 1 1 6.621-6.622 6.628 6.628 0 0 1-6.621 6.622zm0-11.743a5.121 5.121 0 1 0 5.121 5.121 5.126 5.126 0 0 0-5.121-5.116z" class="cls-4" data-name="패스 15081"/>
                                </g>
                            </g>
                        </g>
                    </g>
                    <g id="그룹_9225" data-name="그룹 9225">
                        <path id="패스_15082" d="M2353.391 5461.907h-1.5v-4.034a7.142 7.142 0 0 0-7.134-7.135h-3.528a7.142 7.142 0 0 0-7.134 7.135v4.034h-1.5v-4.034a8.645 8.645 0 0 1 8.634-8.635h3.528a8.645 8.645 0 0 1 8.634 8.635z" class="cls-4" data-name="패스 15082"/>
                    </g>
                </g>
            </g>
        </g>
    </g>
</svg>
