<svg xmlns="http://www.w3.org/2000/svg" width="174" height="60" viewBox="0 0 174 60">
    <defs>
        <linearGradient id="linear-gradient" x2="1" y1=".5" y2=".5" gradientUnits="objectBoundingBox">
            <stop offset="0" stop-color="#e50a0a"/>
            <stop offset="1" stop-color="#d10909"/>
        </linearGradient>
        <linearGradient id="linear-gradient-2" x2="1" y1=".5" y2=".5" gradientUnits="objectBoundingBox">
            <stop offset="0" stop-color="#aa0505"/>
            <stop offset="1" stop-color="#d10909"/>
        </linearGradient>
        <style>
            .cls-2{fill:url(#linear-gradient)}
        </style>
    </defs>
    <g id="logo" transform="translate(-363 -8)">
        <g id="그룹_1" data-name="그룹 1" transform="translate(363 16.264)">
            <g id="그룹_8" data-name="그룹 8" transform="translate(65.399 5.331)">
                <path id="패스_521" d="M995.61 2965.133h-2.289a3.513 3.513 0 0 1-2.563-.883 3.392 3.392 0 0 1-.9-2.541v-6.658a3.391 3.391 0 0 1 .9-2.541 3.511 3.511 0 0 1 2.563-.883h2.289a3.5 3.5 0 0 1 2.552.893 3.378 3.378 0 0 1 .914 2.531v.987a.409.409 0 0 1-.462.462h-1.765q-.441 0-.441-.462v-.862a1.046 1.046 0 0 0-1.239-1.239h-1.428a1.288 1.288 0 0 0-.935.284 1.323 1.323 0 0 0-.284.956v6.407a1.322 1.322 0 0 0 .284.956 1.288 1.288 0 0 0 .935.284h1.428a1.046 1.046 0 0 0 1.239-1.24v-.861q0-.463.441-.462h1.765a.408.408 0 0 1 .462.462v.987a3.377 3.377 0 0 1-.914 2.531 3.5 3.5 0 0 1-2.552.892z" data-name="패스 521" transform="translate(-988.952 -2951.627)"/>
                <path id="패스_522" d="M1111.074 2991.22h-1.786a.39.39 0 0 1-.441-.441v-9.83a.39.39 0 0 1 .441-.441h1.786a.39.39 0 0 1 .441.441v.714h.084a1.638 1.638 0 0 1 .819-.862 2.734 2.734 0 0 1 1.239-.294h.756q.42 0 .42.441v1.449a.491.491 0 0 1-.094.347.4.4 0 0 1-.326.073h-1.449q-1.45 0-1.449 1.639v6.323a.39.39 0 0 1-.441.441z" data-name="패스 522" transform="translate(-1096.434 -2977.714)"/>
                <path id="패스_523" d="M1192.738 2991.22h-4.638a3.512 3.512 0 0 1-2.563-.883 3.392 3.392 0 0 1-.9-2.541v-3.865a3.394 3.394 0 0 1 .9-2.542 3.515 3.515 0 0 1 2.563-.882h1.659a3.517 3.517 0 0 1 2.563.882 3.4 3.4 0 0 1 .9 2.542v2.668a.39.39 0 0 1-.441.441h-5.272q-.252 0-.252.231v.462a1.289 1.289 0 0 0 .283.935 1.323 1.323 0 0 0 .956.283h4.243q.441 0 .441.463v1.386a.451.451 0 0 1-.095.325.487.487 0 0 1-.347.095zm-5.23-5.965h2.857a.2.2 0 0 0 .231-.231v-1.008a1.018 1.018 0 0 0-1.218-1.218h-.883a1.018 1.018 0 0 0-1.218 1.218v1.008a.2.2 0 0 0 .231.23z" data-name="패스 523" transform="translate(-1164.886 -2977.714)"/>
                <path id="패스_524" d="M1298.037 2991.22h-.5a3.512 3.512 0 0 1-2.562-.883 3.391 3.391 0 0 1-.9-2.541v-3.865a3.393 3.393 0 0 1 .9-2.542 3.515 3.515 0 0 1 2.563-.882h4.852q.462 0 .462.441v9.83q0 .441-.462.441h-1.764a.39.39 0 0 1-.441-.441v-.693h-.084a1.59 1.59 0 0 1-.819.85 2.814 2.814 0 0 1-1.245.285zm2.142-3.907v-4.264c0-.154-.084-.231-.252-.231h-1.974a1.28 1.28 0 0 0-.945.284 1.352 1.352 0 0 0-.273.956v3.613a1.357 1.357 0 0 0 .273.956 1.283 1.283 0 0 0 .945.283h.777q1.449-.001 1.45-1.597z" data-name="패스 524" transform="translate(-1263.737 -2977.714)"/>
                <path id="패스_525" d="M1401.312 2957.908h-.84a.532.532 0 0 1-.347-.084.447.447 0 0 1-.095-.336v-1.45a.39.39 0 0 1 .441-.441h.84a.2.2 0 0 0 .231-.231v-1.995q0-.441.462-.441h1.764a.39.39 0 0 1 .441.441v1.995c0 .155.084.231.252.231h1.639a.39.39 0 0 1 .441.441v1.45a.452.452 0 0 1-.095.325.489.489 0 0 1-.346.094h-1.639c-.168 0-.252.077-.252.231v4.642a1.256 1.256 0 0 0 .294.935 1.361 1.361 0 0 0 .966.283h.84a.39.39 0 0 1 .441.441v1.449a.451.451 0 0 1-.094.326.489.489 0 0 1-.347.095h-1.281a3.554 3.554 0 0 1-2.573-.882 3.343 3.343 0 0 1-.914-2.521v-4.768a.2.2 0 0 0-.229-.23z" data-name="패스 525" transform="translate(-1359.45 -2952.804)"/>
                <path id="패스_526" d="M1495.645 2991.22H1491a3.513 3.513 0 0 1-2.562-.883 3.391 3.391 0 0 1-.9-2.541v-3.865a3.393 3.393 0 0 1 .9-2.542 3.515 3.515 0 0 1 2.563-.882h1.659a3.518 3.518 0 0 1 2.563.882 3.394 3.394 0 0 1 .9 2.542v2.668a.39.39 0 0 1-.441.441h-5.272q-.252 0-.252.231v.462a1.289 1.289 0 0 0 .283.935 1.322 1.322 0 0 0 .956.283h4.243q.441 0 .441.463v1.386a.45.45 0 0 1-.095.325.487.487 0 0 1-.341.095zm-5.23-5.965h2.856a.2.2 0 0 0 .231-.231v-1.008a1.018 1.018 0 0 0-1.218-1.218h-.882a1.018 1.018 0 0 0-1.218 1.218v1.008a.2.2 0 0 0 .231.23z" data-name="패스 526" transform="translate(-1438.492 -2977.714)"/>
                <path id="패스_527" d="M985.81 3225.7h-1.765q-.462 0-.462-.441v-10.519a.2.2 0 0 0-.231-.231h-2.395a.39.39 0 0 1-.441-.441v-1.428a.39.39 0 0 1 .441-.441h7.94a.39.39 0 0 1 .441.441v1.428a.39.39 0 0 1-.441.441H986.5q-.252 0-.252.231v10.523a.39.39 0 0 1-.438.437z" data-name="패스 527" transform="translate(-980.517 -3187.102)"/>
                <path id="패스_528" d="M1090.444 3251.79h-1.785a.39.39 0 0 1-.441-.441v-9.831a.39.39 0 0 1 .441-.441h1.785a.39.39 0 0 1 .441.441v.714h.084a1.636 1.636 0 0 1 .819-.861 2.738 2.738 0 0 1 1.239-.294h.756q.42 0 .42.441v1.449a.488.488 0 0 1-.095.346.4.4 0 0 1-.325.073h-1.449q-1.449 0-1.449 1.639v6.323a.39.39 0 0 1-.441.442z" data-name="패스 528" transform="translate(-1077.8 -3213.188)"/>
                <path id="패스_529" d="M1172.108 3251.79h-4.642a3.513 3.513 0 0 1-2.563-.882 3.392 3.392 0 0 1-.9-2.541v-3.867a3.394 3.394 0 0 1 .9-2.542 3.515 3.515 0 0 1 2.563-.882h1.659a3.515 3.515 0 0 1 2.563.882 3.394 3.394 0 0 1 .9 2.542v2.667a.39.39 0 0 1-.441.441h-5.272q-.252 0-.252.231v.461a1.288 1.288 0 0 0 .284.935 1.323 1.323 0 0 0 .956.283h4.243q.441 0 .441.463v1.386a.451.451 0 0 1-.094.325.489.489 0 0 1-.345.098zm-5.23-5.966h2.857a.2.2 0 0 0 .231-.23v-1.008a1.018 1.018 0 0 0-1.218-1.218h-.882a1.018 1.018 0 0 0-1.219 1.218v1.008a.2.2 0 0 0 .231.231z" data-name="패스 529" transform="translate(-1146.252 -3213.188)"/>
                <path id="패스_530" d="M1277.836 3251.79h-1.785a.39.39 0 0 1-.441-.441v-9.831a.39.39 0 0 1 .441-.441h1.785a.39.39 0 0 1 .441.441v.693h.084a1.971 1.971 0 0 1 2.058-1.134h.672q3.3 0 3.3 3.424v6.848c0 .293-.155.441-.462.441h-1.764a.39.39 0 0 1-.441-.441v-6.722a1.045 1.045 0 0 0-1.239-1.24h-.756q-1.45 0-1.45 1.6v6.365a.39.39 0 0 1-.443.438z" data-name="패스 530" transform="translate(-1247.064 -3213.188)"/>
                <path id="패스_531" d="M1393.312 3213.935h-.861a3.2 3.2 0 0 1-2.447-.882 3.572 3.572 0 0 1-.83-2.542v-3.865a3.572 3.572 0 0 1 .83-2.542 3.2 3.2 0 0 1 2.447-.882h.861a2.82 2.82 0 0 1 1.239.283 1.593 1.593 0 0 1 .819.851h.084v-4.747a.39.39 0 0 1 .441-.441h1.785a.39.39 0 0 1 .441.441v13.884a.39.39 0 0 1-.441.441h-1.78a.39.39 0 0 1-.441-.441v-.693h-.084a1.592 1.592 0 0 1-.819.851 2.82 2.82 0 0 1-1.244.284zm2.142-3.907v-2.9q0-1.6-1.449-1.6h-.945a1.282 1.282 0 0 0-.946.283 1.356 1.356 0 0 0-.273.956v3.612a1.355 1.355 0 0 0 .273.956 1.281 1.281 0 0 0 .946.284h.945q1.449.006 1.449-1.591z" data-name="패스 531" transform="translate(-1349.644 -3175.333)"/>
            </g>
            <path id="패스_532" d="M1574.176 3203.91l-6.944-2.892v-7.177l6.944 2.892z" class="cls-2" data-name="패스 532" transform="translate(-1445.079 -3165.189)"/>
            <g id="그룹_14" data-name="그룹 14">
                <g id="그룹_13" data-name="그룹 13">
                    <g id="그룹_12" data-name="그룹 12" transform="translate(15.243)">
                        <g id="그룹_11" data-name="그룹 11">
                            <g id="그룹_10" data-name="그룹 10">
                                <g id="그룹_9" data-name="그룹 9">
                                    <path id="패스_533" fill="url(#linear-gradient-2)" d="M695.328 2902.336l-3.18-1.328-10.771-4.5v11.647l10.771 4.5v23.294l3.179 1.327 7.592 3.169V2905.5z" data-name="패스 533" transform="translate(-659.836 -2896.512)"/>
                                    <path id="패스_534" d="M469.456 2912.656l10.771-4.5v-11.647l-10.771 4.5-3.179 1.327-7.592 3.169v34.941l7.592-3.169 3.179-1.327 10.771-4.5v-11.646l-10.771 4.5v-11.647z" class="cls-2" data-name="패스 534" transform="translate(-458.685 -2896.512)"/>
                                </g>
                            </g>
                        </g>
                    </g>
                    <path id="패스_535" d="M308.048 2955.528l-6.944 2.906v-7.481l6.944-2.906z" class="cls-2" data-name="패스 535" transform="translate(-301.104 -2943.063)"/>
                </g>
            </g>
        </g>
    </g>
</svg>
