<svg xmlns="http://www.w3.org/2000/svg" width="41.5" height="41.5" viewBox="0 0 41.5 41.5">
    <defs>
        <style>
            .cls-2{fill:#222}.cls-3{opacity:.3}.cls-4{fill:#d10909}
        </style>
    </defs>
    <g id="icon" transform="translate(-2325.36 -5485.434)">
        <g id="그룹_9210" data-name="그룹 9210">
            <g id="그룹_9209" data-name="그룹 9209">
                <g id="그룹_9203" data-name="그룹 9203">
                    <circle id="타원_33" cx="17" cy="17" r="17" fill="#fff" data-name="타원 33" transform="translate(2329.11 5489.184)"/>
                    <path id="패스_15068" d="M2346.11 5523.934a17.75 17.75 0 1 1 17.75-17.75 17.77 17.77 0 0 1-17.75 17.75zm0-34a16.25 16.25 0 1 0 16.25 16.25 16.269 16.269 0 0 0-16.25-16.25z" class="cls-2" data-name="패스 15068"/>
                </g>
                <g id="그룹_9204" class="cls-3" data-name="그룹 9204">
                    <path id="패스_15069" d="M2343.64 5497.337l.722 12.667h1.667v-12.667z" class="cls-4" data-name="패스 15069"/>
                </g>
                <g id="그룹_9208" data-name="그룹 9208">
                    <g id="그룹_9205" data-name="그룹 9205">
                        <path id="패스_15070" d="M2348.474 5511.6h-4.842l-1.107-15.383h7.056zm-3.446-1.5h2.049l.893-12.383h-3.834z" class="cls-2" data-name="패스 15070"/>
                    </g>
                    <g id="그룹_9206" class="cls-3" data-name="그룹 9206">
                        <path id="패스_15071" d="M2346.029 5515.944a2.71 2.71 0 0 1 1.373-2.352 2.692 2.692 0 0 0-1.349-.371 2.723 2.723 0 1 0 1.349 5.074 2.711 2.711 0 0 1-1.373-2.351z" class="cls-4" data-name="패스 15071"/>
                    </g>
                    <g id="그룹_9207" data-name="그룹 9207">
                        <path id="패스_15072" d="M2346.053 5519.415a3.472 3.472 0 1 1 3.473-3.471 3.476 3.476 0 0 1-3.473 3.471zm0-5.444a1.972 1.972 0 1 0 1.973 1.973 1.975 1.975 0 0 0-1.973-1.973z" class="cls-2" data-name="패스 15072"/>
                    </g>
                </g>
            </g>
        </g>
    </g>
</svg>
